HIERARCHY
ROOT Hips
{
	OFFSET -3.958830 18.904000 13.208200
	CHANNELS 6 Xposition Yposition Zposition Zrotation Yrotation Xrotation 
	JOINT LHipJoint
	{
		OFFSET 0.000000 0.000000 0.000000
		CHANNELS 3 Zrotation Yrotation Xrotation
		JOINT LeftUpLeg
		{
			OFFSET 1.800000 -1.400000 0.085000
			CHANNELS 3 Zrotation Yrotation Xrotation
			JOINT LeftLeg
			{
				OFFSET 2.215000 -6.000000 0.000000
				CHANNELS 3 Zrotation Yrotation Xrotation
				JOINT LeftFoot
				{
					OFFSET 2.500000 -6.900000 0.000000
					CHANNELS 3 Zrotation Yrotation Xrotation
					JOINT LeftToeBase
					{
						OFFSET 0.200000 -0.500000 1.950000
						CHANNELS 3 Zrotation Yrotation Xrotation
						End Site
						{
							OFFSET 0.000000 0.000000 0.000000
						}
					}
				}
			}
		}
	}
	JOINT RHipJoint
	{
		OFFSET 0.000000 0.000000 0.000000
		CHANNELS 3 Zrotation Yrotation Xrotation
		JOINT RightUpLeg
		{
			OFFSET -1.800000 -1.400000 0.085000
			CHANNELS 3 Zrotation Yrotation Xrotation
			JOINT RightLeg
			{
				OFFSET -2.215000 -6.000000 0.000000
				CHANNELS 3 Zrotation Yrotation Xrotation
				JOINT RightFoot
				{
					OFFSET -2.500000 -6.900000 0.000000
					CHANNELS 3 Zrotation Yrotation Xrotation
					JOINT RightToeBase
					{
						OFFSET -0.200000 -0.500000 1.950000
						CHANNELS 3 Zrotation Yrotation Xrotation
						End Site
						{
							OFFSET 0.000000 0.000000 0.000000
						}
					}
				}
			}
		}
	}
	JOINT LowerBack
	{
		OFFSET 0.000000 0.000000 0.000000
		CHANNELS 3 Zrotation Yrotation Xrotation
		JOINT Spine
		{
			OFFSET -0.087000 1.940000 -0.288900
			CHANNELS 3 Zrotation Yrotation Xrotation
			JOINT Spine1
			{
				OFFSET 0.000000 1.950000 0.060000
				CHANNELS 3 Zrotation Yrotation Xrotation
				JOINT Neck
				{
					OFFSET 0.000000 0.000000 0.000000
					CHANNELS 3 Zrotation Yrotation Xrotation
					JOINT Neck1
					{
						OFFSET 0.000000 1.600000 0.340000
						CHANNELS 3 Zrotation Yrotation Xrotation
						JOINT Head
						{
							OFFSET 0.000000 1.667000 -0.240000
							CHANNELS 3 Zrotation Yrotation Xrotation
							End Site
							{
								OFFSET 0.000000 0.000000 0.000000
							}
						}
					}
				}
				JOINT LeftShoulder
				{
					OFFSET 0.000000 0.000000 0.000000
					CHANNELS 3 Zrotation Yrotation Xrotation
					JOINT LeftArm
					{
						OFFSET 2.700000 1.550000 -0.730000
						CHANNELS 3 Zrotation Yrotation Xrotation
						JOINT LeftForeArm
						{
							OFFSET 5.450000 0.000000 0.000000
							CHANNELS 3 Zrotation Yrotation Xrotation
							JOINT LeftHand
							{
								OFFSET 3.450000 0.000000 0.000000
								CHANNELS 3 Zrotation Yrotation Xrotation
								JOINT LeftHandIndex1
								{
									OFFSET 0.750000 0.000000 0.000000
									CHANNELS 3 Zrotation Yrotation Xrotation
									End Site
									{
										OFFSET 0.000000 0.000000 0.000000
									}
								}
							}
						}
					}
				}
				JOINT RightShoulder
				{
					OFFSET 0.000000 0.000000 0.000000
					CHANNELS 3 Zrotation Yrotation Xrotation
					JOINT RightArm
					{
						OFFSET -2.700000 1.550000 -0.730000
						CHANNELS 3 Zrotation Yrotation Xrotation
						JOINT RightForeArm
						{
							OFFSET -5.450000 0.000000 0.000000
							CHANNELS 3 Zrotation Yrotation Xrotation
							JOINT RightHand
							{
								OFFSET -3.450000 0.000000 0.000000
								CHANNELS 3 Zrotation Yrotation Xrotation
								JOINT RightHandIndex1
								{
									OFFSET -0.750000 0.000000 0.000000
									CHANNELS 3 Zrotation Yrotation Xrotation
									End Site
									{
										OFFSET 0.000000 0.000000 0.000000
									}
								}
							}
						}
					}
				}
			}
		}
	}
}
MOTION
Frames: 11
Frame Time: 0.016667
0.125780 16.232030 -1.331960 -6.603492 23.955024 6.682675 -15.042536 11.866534 3.221445 16.275609 -2.570012 -25.233122 -4.864719 3.611527 3.807083 -1.017222 3.812678 3.318875 0.499310 0.249870 0.432380 18.527522 -11.027824 2.514296 -3.020601 1.778463 -15.272743 6.494940 -4.321836 11.595723 0.020209 -3.595497 2.989389 0.529660 0.612600 0.297890 -4.406128 0.585009 -6.963560 5.982197 4.178211 1.831111 4.251731 3.541692 6.192061 -4.810375 -0.341940 -8.872959 1.239117 1.883476 13.910386 -3.739450 2.668530 -4.572190 -4.964637 -5.755440 5.164047 -40.636632 -5.851604 0.510688 -67.983952 -66.638912 40.773687 -4.108548 3.872824 0.080300 0.556730 -0.372260 0.164300 14.934937 7.679900 2.865925 60.448170 8.916649 -1.655270 14.180042 19.115315 -0.670675 2.027990 -1.870502 -0.380590 0.272080 0.001640 -0.176180 
0.130860 16.234770 -1.327490 -6.545759 23.863611 6.953832 -15.097072 11.978905 3.273361 16.223971 -2.594016 -25.136602 -5.084509 3.588901 3.190801 -0.997761 3.872114 3.323464 0.456070 0.174150 0.399890 18.479243 -10.859797 2.474080 -3.103192 1.839353 -15.519009 6.604229 -4.313035 11.712840 0.046303 -3.529569 3.030918 0.482880 0.636350 0.275330 -4.240133 0.052452 -6.950083 5.155797 4.182005 1.621965 5.362045 3.462721 6.287512 -5.408362 -1.447154 -8.781455 -0.612226 1.215904 14.066536 -3.486250 1.188460 -4.502110 -4.895765 -4.960021 5.399294 -39.584498 -5.459960 1.238020 -75.492143 -66.193697 45.811121 -4.119733 3.829816 0.102630 0.535800 -0.393150 0.164470 16.153628 7.447218 2.797741 58.408575 7.887788 -2.431902 12.593441 19.896945 -0.707420 2.039258 -1.805765 -0.404850 0.300930 0.026250 -0.168450 
0.146360 16.235400 -1.329040 -6.558149 24.327712 7.421517 -15.168275 12.123373 3.350431 15.835635 -2.760209 -25.470041 -4.921392 3.426186 2.394443 -1.001711 3.873840 3.337234 0.426280 0.134050 0.363110 18.418147 -10.639445 2.430863 -3.068358 1.963780 -16.099668 6.695503 -4.280017 11.968880 0.078734 -3.454235 3.052855 0.467430 0.666540 0.268830 -4.039956 -0.643915 -6.938450 3.971412 3.667105 1.545072 6.790469 2.917817 6.142058 -6.384638 -2.711246 -8.580594 -2.779643 1.273730 13.787677 -3.408470 0.152670 -4.380690 -3.169551 -2.898247 5.513476 -39.410361 -5.359905 2.818438 -86.777530 -64.393992 53.115705 -4.119777 3.860970 0.098940 0.534950 -0.415590 0.163250 16.468592 5.948677 2.498761 56.082753 6.130979 -3.572444 14.250661 23.317479 -0.074944 2.014512 -1.795307 -0.418500 0.322660 0.055540 -0.152960 
0.166550 16.241830 -1.319380 -6.381190 24.685496 7.776880 -15.232335 12.306796 3.405182 15.407162 -2.887647 -25.616071 -4.874671 3.373891 2.122887 -0.988117 3.867594 3.347574 0.405160 0.109780 0.339500 18.355238 -10.472303 2.379311 -3.082013 2.014616 -16.480271 6.337536 -4.212031 12.538851 0.107974 -3.381978 3.078922 0.453000 0.680540 0.256900 -3.859938 -1.311503 -6.920304 2.816557 2.960517 1.618637 7.550861 2.273888 6.020496 -7.189150 -3.922908 -8.437518 -5.037613 2.101427 13.816139 -3.142670 -0.152330 -4.161180 -0.897569 -0.752536 5.418628 -39.885625 -6.006047 4.350356 -91.530100 -60.282510 53.852147 -4.045983 3.955725 0.090410 0.528270 -0.429030 0.160680 15.870517 4.329003 2.469013 55.230922 4.187298 -5.088399 16.571605 29.746095 1.146642 1.976287 -1.822170 -0.421990 0.332740 0.068180 -0.139140 
0.193900 16.258300 -1.306200 -5.885054 24.997642 8.287300 -15.270017 12.457605 3.434954 14.615690 -3.046135 -25.467411 -4.844701 3.274292 1.675594 -0.999845 3.861035 3.377584 0.358630 0.047480 0.311930 18.313218 -10.372203 2.332642 -3.376956 2.070690 -16.974507 5.819252 -4.121427 13.021433 0.148332 -3.312744 3.110156 0.427880 0.719160 0.237830 -3.756739 -1.786737 -6.888747 2.294555 2.277236 1.610770 6.966280 1.798903 5.705015 -7.540298 -5.048035 -8.164160 -7.255863 3.366178 14.055983 -2.978070 0.016420 -3.588030 1.272351 1.944865 4.948369 -41.890354 -6.970558 5.801765 -89.963895 -55.662251 49.265824 -3.983533 3.996002 0.095290 0.536380 -0.456520 0.153790 14.387054 2.212311 2.475468 56.383425 2.501897 -6.442027 19.313615 37.674020 3.024312 1.928226 -1.857233 -0.457550 0.363210 0.095900 -0.136930 
0.238960 16.270170 -1.303560 -5.653926 25.426243 8.781908 -15.278024 12.538918 3.436182 13.762584 -3.199704 -25.520886 -4.568841 3.171533 1.422937 -1.071654 3.871828 3.405029 0.277130 -0.086570 0.316030 18.305627 -10.329969 2.312423 -3.484210 2.193837 -17.607953 5.170981 -3.997608 13.261122 0.205679 -3.230271 3.138040 0.382030 0.766680 0.219230 -3.753579 -2.002287 -6.852294 3.169851 1.428260 1.624034 5.374155 1.228014 5.039037 -7.310283 -5.905113 -7.695472 -9.030510 4.741158 14.323224 -3.720340 0.837320 -2.745210 2.737473 5.295978 4.159109 -45.833361 -7.264245 6.843078 -83.746517 -51.401592 41.986328 -3.974306 3.937308 0.128800 0.562950 -0.499040 0.112770 12.352658 -0.637891 2.300548 58.293979 1.451155 -7.006468 23.080118 46.405146 6.027806 1.873113 -1.893586 -0.539700 0.403130 0.152300 -0.176450 
0.282410 16.278810 -1.308050 -5.271238 25.863853 9.156051 -15.284076 12.587509 3.437595 12.952700 -3.316879 -25.597069 -4.610433 3.156680 1.355519 -1.106630 3.879679 3.431938 0.174550 -0.230950 0.301350 18.300300 -10.327677 2.281662 -3.699840 2.321516 -18.349798 4.261206 -3.861098 13.755024 0.274117 -3.165747 3.175194 0.316510 0.811180 0.197640 -3.756043 -2.091223 -6.806051 4.131067 0.644221 1.582778 3.632873 0.635535 4.928125 -6.483746 -6.576404 -7.463890 -10.498999 6.365221 14.721481 -4.727790 2.264030 -1.331710 2.925101 7.917132 3.639952 -49.903085 -6.094682 6.465040 -76.780875 -48.934006 35.930152 -4.012607 3.839727 0.140680 0.600050 -0.548760 0.070430 10.425216 -2.725157 2.325892 60.205638 1.251234 -6.876140 28.176670 54.828454 10.204556 1.841675 -1.967537 -0.610460 0.417600 0.203490 -0.211180 
0.327240 16.280810 -1.312700 -5.055073 26.416767 9.550713 -15.258833 12.523183 3.411656 12.203564 -3.409820 -25.885370 -4.714339 3.157334 1.521018 -1.124970 3.842912 3.464927 0.131660 -0.281100 0.312260 18.333696 -10.385818 2.280804 -3.809583 2.453978 -19.061925 3.622665 -3.723062 13.770401 0.310289 -3.125310 3.201977 0.294920 0.837180 0.202120 -3.855388 -1.849502 -6.751065 5.827375 0.111271 1.281762 1.065800 0.189161 4.847525 -5.090156 -6.867340 -6.904779 -11.122205 7.876171 15.015202 -5.976460 3.949410 -0.414440 1.828235 10.355954 2.626120 -53.792178 -5.194372 5.620913 -66.608272 -46.711880 28.928948 -4.097831 3.710196 0.125150 0.648990 -0.568640 0.051240 8.577369 -4.784319 2.167912 62.026953 2.245997 -5.452459 33.328936 61.662197 14.904412 1.816602 -2.071423 -0.636030 0.416780 0.214240 -0.231440 
0.366330 16.274590 -1.321470 -4.619667 26.817789 9.613191 -15.226373 12.465064 3.391525 11.530973 -3.427382 -25.841551 -5.167461 3.253215 1.869897 -1.039043 3.764901 3.508292 0.067840 -0.339740 0.294970 18.353729 -10.520878 2.294324 -4.073105 2.498734 -19.528072 2.979025 -3.646689 13.937284 0.325834 -3.099351 3.239324 0.218970 0.830450 0.212830 -3.958132 -1.479602 -6.752308 7.179513 -0.114304 1.505133 -1.471384 -0.052271 4.469318 -3.044054 -6.872500 -6.474817 -11.282011 9.425921 16.376191 -7.087940 6.243410 1.006630 -0.744735 11.860011 1.449558 -57.030708 -4.725880 4.232060 -53.416893 -44.528708 21.342048 -4.186405 3.540450 0.101200 0.669400 -0.557360 0.043110 6.935368 -6.080731 2.387629 63.409049 4.030611 -2.528523 42.531043 69.533071 23.450679 1.875914 -2.180073 -0.613080 0.366310 0.202280 -0.227240 
0.401530 16.266710 -1.343610 -4.125695 27.588812 9.466076 -15.181698 12.410771 3.372337 10.859722 -3.439728 -26.233263 -5.589836 3.482828 3.190341 -0.918510 3.644921 3.534373 0.012530 -0.386820 0.265270 18.371159 -10.719106 2.333476 -4.489077 2.531458 -19.948254 2.698919 -3.729143 14.493373 0.319226 -3.123084 3.237046 0.126810 0.792140 0.251450 -4.104692 -1.000388 -6.796043 8.704908 -0.339963 2.112416 -4.401976 -0.356076 3.783966 -0.475335 -6.620237 -6.038337 -10.897599 10.959789 18.452683 -8.007980 8.646620 2.561680 -4.172548 12.568139 0.109156 -59.264679 -4.882035 2.922499 -39.660993 -41.483348 14.220036 -4.271187 3.376088 0.071580 0.666760 -0.521620 0.034700 5.072752 -6.845993 2.671095 64.740352 6.937364 2.304789 55.587253 75.871080 35.408952 2.047632 -2.171593 -0.544570 0.267810 0.189160 -0.208410 
0.436810 16.243600 -1.367070 -3.658422 28.224051 9.423654 -15.124892 12.299573 3.355980 10.321945 -3.487868 -26.796024 -6.074100 3.765545 4.810190 -0.817621 3.545848 3.540538 0.026920 -0.352310 0.294970 18.404030 -10.949803 2.374420 -4.984524 2.610121 -20.523546 2.401378 -3.802291 15.270037 0.294085 -3.177413 3.198366 0.094170 0.731310 0.299970 -4.288491 -0.366069 -6.816589 10.339350 -0.367535 2.332522 -7.700639 -0.538652 3.209268 2.417754 -6.043162 -5.204240 -9.649686 12.371663 20.272033 -9.189620 11.117380 3.620590 -8.107033 13.133979 -1.553479 -59.723164 -5.676211 2.264499 -27.780987 -37.169663 8.715492 -4.351929 3.224491 0.026840 0.666370 -0.472050 0.036310 3.001825 -7.767600 2.707544 65.876894 10.543426 9.217637 73.722606 80.836810 50.597276 2.546299 -1.460031 -0.461050 0.165000 0.138260 -0.194980 
